<svg width="48" height="48" xmlns="http://www.w3.org/2000/svg">

 <g>
  <title>background</title>
  <rect fill="none" id="canvas_background" height="402" width="582" y="-1" x="-1"/>
 </g>
 <g>
  <title>Layer 1</title>
  <path id="svg_1" fill="none" d="m0,-1l48,0l0,48l-48,0l0,-48z"/>
  <path fill="#006aff" id="svg_2" d="m31,21c1.66,0 3,-1.34 3,-3s-1.34,-3 -3,-3s-3,1.34 -3,3s1.34,3 3,3zm-14,0c1.66,0 3,-1.34 3,-3s-1.34,-3 -3,-3s-3,1.34 -3,3s1.34,3 3,3zm7,14c5.22,0 9.65,-3.34 11.3,-8l-22.6,0c1.65,4.66 6.08,8 11.3,8zm-0.01,-32c-11.05,0 -19.99,8.95 -19.99,20s8.94,20 19.99,20c11.05,0 20.01,-8.95 20.01,-20s-8.96,-20 -20.01,-20zm0.01,36c-8.84,0 -16,-7.16 -16,-16s7.16,-16 16,-16s16,7.16 16,16s-7.16,16 -16,16z"/>
 </g>
</svg>