<svg width="48" height="48" xmlns="http://www.w3.org/2000/svg">

 <g>
  <title>background</title>
  <rect fill="none" id="canvas_background" height="402" width="582" y="-1" x="-1"/>
 </g>
 <g>
  <title>Layer 1</title>
  <path id="svg_1" fill="#006AFF" d="m24.066519,0c-13.255,0 -24,10.745 -24,24s10.745,24 24,24s24,-10.745 24,-24s-10.745,-24 -24,-24zm1.602,34.941c0,0.997 -0.635,1.181 -0.986,1.207l-1.181,0c-0.826,0 -0.978,-0.621 -1,-0.966l0,-15.303c0,-1.141 1.25,-1.152 1.25,-1.152l0.566,0c0.298,0.005 1.351,0.116 1.351,1.418l0,14.796zm-1.657,-19.166c-1.116,0 -1.907,-0.864 -1.907,-1.944c0,-1.116 0.828,-1.979 1.979,-1.979c1.188,0 1.943,0.864 1.943,1.979c0.037,1.08 -0.755,1.944 -2.015,1.944z"/>
 </g>
</svg>