<svg width="32" height="32" xmlns="http://www.w3.org/2000/svg">

 <g>
  <title>background</title>
  <rect fill="none" id="canvas_background" height="402" width="582" y="-1" x="-1"/>
 </g>
 <g>
  <title>Layer 1</title>
  <path fill="#006aff" id="XMLID_254_" d="m29.845,17.099l-2.489,8.725c-0.367,1.281 -1.552,2.176 -2.883,2.176l-13.473,0c-0.553,0 -1,-0.448 -1,-1l0,-14c0,-0.215 0.069,-0.425 0.198,-0.597l5.392,-7.24c0.598,-0.749 1.46,-1.163 2.384,-1.163c1.669,0 3.026,1.357 3.026,3.026l0,4.974l5.002,0c1.265,0 2.427,0.579 3.188,1.589c0.764,1.012 1.002,2.291 0.655,3.51z"/>
  <path fill="#006aff" id="XMLID_256_" d="m7,12l-4,0c-0.553,0 -1,0.448 -1,1l0,14c0,0.552 0.447,1 1,1l4,0c0.553,0 1,-0.448 1,-1l0,-14c0,-0.552 -0.447,-1 -1,-1zm-2,13.5c-0.828,0 -1.5,-0.672 -1.5,-1.5c0,-0.828 0.672,-1.5 1.5,-1.5c0.828,0 1.5,0.672 1.5,1.5c0,0.828 -0.672,1.5 -1.5,1.5z"/>
 </g>
</svg>