<svg width="30.000000000000004" height="30.000000000000004" xmlns="http://www.w3.org/2000/svg">

 <g>
  <title>background</title>
  <rect fill="none" id="canvas_background" height="402" width="582" y="-1" x="-1"/>
 </g>
 <g>
  <title>Layer 1</title>
  <path fill="#006AFF" id="svg_1" d="m19,24l-17,0c-1.105,0 -2,-0.895 -2,-2l0,-14c0,-1.105 0.895,-2 2,-2l17,0c1.105,0 2,0.895 2,2l0,14c0,1.105 -0.895,2 -2,2z"/>
  <polygon fill="#005dff" id="svg_2" points="23.044378627091646,15 30.044378627091646,15 30.044378627091646,9 28.383379328995943,8.25 23.044378627091646,13 "/>
  <circle fill="#005dff" id="svg_3" r="1" cy="9" cx="29"/>
  <polygon fill="#005dff" id="svg_4" points="22.955621372908354,15 29.955621372908354,15 29.955621372908354,21 28.29462207481265,21.75 22.955621372908354,17 "/>
  <circle fill="#005dff" id="svg_5" r="1" cy="21" cx="29"/>
 </g>
</svg>